<svg width="400" height="380" viewBox="0 0 400 380" xmlns="http://www.w3.org/2000/svg">
  <title>WandaLand logo</title>
  <desc>Logo WandaLand : bulle de dialogue avec visage étonné, yeux écarquillés, sourcils levés, bouche ouverte.</desc>

  <rect x="50" y="20" width="300" height="270" rx="28" fill="#1A56DB"/>
  <polygon points="125,290 172,290 148,320" fill="#1A56DB"/>

  <path d="M78 72 Q100 44 132 66" stroke="white" stroke-width="4" fill="none" stroke-linecap="round"/>
  <path d="M268 72 Q300 44 322 66" stroke="white" stroke-width="4" fill="none" stroke-linecap="round"/>

  <ellipse cx="118" cy="145" rx="34" ry="38" fill="white"/>
  <ellipse cx="282" cy="145" rx="34" ry="38" fill="white"/>

  <ellipse cx="124" cy="151" rx="17" ry="21" fill="#1A56DB"/>
  <ellipse cx="288" cy="151" rx="17" ry="21" fill="#1A56DB"/>

  <ellipse cx="130" cy="145" rx="6" ry="6" fill="white"/>
  <ellipse cx="294" cy="145" rx="6" ry="6" fill="white"/>

  <ellipse cx="200" cy="228" rx="32" ry="24" fill="white"/>
  <ellipse cx="200" cy="234" rx="22" ry="16" fill="#0B3A8C"/>
  <ellipse cx="200" cy="240" rx="14" ry="10" fill="#D94040"/>
  <ellipse cx="200" cy="244" rx="10" ry="6" fill="#C23030"/>
</svg>
